<svg width="32" height="26" viewBox="0 0 32 26" fill="none" xmlns="http://www.w3.org/2000/svg">
                        <path d="M29.2094 25.9H2.79064C1.78392 25.9 0.965027 25.0833 0.965027 24.0794V1.92065C0.965027 0.916675 1.78392 0.100006 2.79064 0.100006H29.2094C30.2161 0.100006 31.035 0.916675 31.035 1.92065V24.0756C31.035 25.0796 30.2161 25.8963 29.2094 25.8963V25.9ZM2.79064 1.22386C2.40373 1.22386 2.09195 1.5348 2.09195 1.92065V24.0756C2.09195 24.4615 2.40749 24.7724 2.79064 24.7724H29.2094C29.5963 24.7724 29.9081 24.4615 29.9081 24.0756V1.92065C29.9081 1.5348 29.5926 1.22386 29.2094 1.22386H2.79064Z" fill="#131C50"/>
                        <path d="M9.85643 5.79421C10.4601 5.79421 10.9495 5.30614 10.9495 4.70407C10.9495 4.102 10.4601 3.61393 9.85643 3.61393C9.25272 3.61393 8.76332 4.102 8.76332 4.70407C8.76332 5.30614 9.25272 5.79421 9.85643 5.79421Z" fill="#131C50"/>
                        <path d="M6.09252 5.79421C6.69623 5.79421 7.18563 5.30614 7.18563 4.70407C7.18563 4.102 6.69623 3.61393 6.09252 3.61393C5.48881 3.61393 4.9994 4.102 4.9994 4.70407C4.9994 5.30614 5.48881 5.79421 6.09252 5.79421Z" fill="#131C50"/>
                        <path d="M13.3123 5.79421C13.916 5.79421 14.4054 5.30614 14.4054 4.70407C14.4054 4.102 13.916 3.61393 13.3123 3.61393C12.7086 3.61393 12.2192 4.102 12.2192 4.70407C12.2192 5.30614 12.7086 5.79421 13.3123 5.79421Z" fill="#131C50"/>
                        <path d="M30.4716 7.91081H1.52849V9.03467H30.4716V7.91081Z" fill="#131C50"/>
                        <path d="M11.205 11.8068V12.8071C10.8819 12.8071 10.6603 12.852 10.5439 12.9382C10.4274 13.0244 10.3673 13.2079 10.3673 13.4889V15.1484C10.3748 15.4556 10.3485 15.7104 10.2847 15.9127C10.2208 16.115 10.1081 16.2723 9.94283 16.3922C9.77755 16.5083 9.54089 16.5945 9.23287 16.6469C9.54089 16.7331 9.7813 16.8417 9.95034 16.9728C10.1194 17.1002 10.2396 17.2575 10.3072 17.4411C10.3786 17.6247 10.4124 17.8457 10.4124 18.1004V20.4118C10.4124 20.6816 10.4725 20.8614 10.5889 20.9438C10.7054 21.0262 10.927 21.0712 11.2501 21.0712V22.0714C10.6828 22.1463 10.2246 22.1238 9.87146 22.0115C9.51835 21.8991 9.25916 21.7118 9.09388 21.457C8.9286 21.2023 8.84596 20.8914 8.84596 20.5317V17.9131C8.84596 17.7371 8.82718 17.6059 8.78586 17.5235C8.74454 17.4411 8.68068 17.3737 8.59428 17.3325C8.50788 17.2875 8.38768 17.2388 8.24118 17.1789V16.1225C8.39519 16.07 8.51164 16.0288 8.59428 15.9913C8.67316 15.9539 8.72951 15.8902 8.75956 15.8003C8.78961 15.7104 8.80464 15.5568 8.80464 15.3432V13.354C8.80464 12.9869 8.88728 12.676 9.05256 12.425C9.21784 12.174 9.47703 11.9904 9.83014 11.8743C10.1832 11.7619 10.6415 11.7394 11.2087 11.8143L11.205 11.8068Z" fill="#131C50"/>
                        <path d="M21.5238 11.8068C22.0985 11.7319 22.5606 11.7544 22.9137 11.8668C23.2668 11.9792 23.5222 12.1627 23.6837 12.4175C23.8453 12.6685 23.9279 12.9794 23.9279 13.3465V15.3358C23.9279 15.5493 23.9429 15.6991 23.973 15.7928C24.003 15.8864 24.0594 15.9501 24.1458 15.9838C24.2284 16.0213 24.3486 16.0663 24.5026 16.115V17.1714C24.3561 17.2313 24.2359 17.28 24.1458 17.325C24.0556 17.3699 23.988 17.4336 23.9467 17.516C23.9054 17.6022 23.8866 17.7296 23.8866 17.9056V20.5242C23.8866 20.8839 23.804 21.191 23.6424 21.4495C23.4809 21.708 23.2217 21.8916 22.8724 22.004C22.5193 22.1164 22.0572 22.1388 21.4825 22.0639V21.0637C21.8131 21.0637 22.0384 21.0225 22.1549 20.9363C22.2713 20.8501 22.3314 20.6741 22.3314 20.4043V18.0929C22.339 17.8382 22.3765 17.6172 22.4404 17.4336C22.5042 17.2501 22.6244 17.0927 22.7935 16.9653C22.9625 16.838 23.1992 16.7293 23.4997 16.6394C23.1992 16.587 22.9663 16.5046 22.801 16.3847C22.6357 16.2686 22.523 16.1075 22.4592 15.9052C22.3953 15.7029 22.369 15.4481 22.3765 15.141V13.4814C22.3765 13.2042 22.3164 13.0206 22.2 12.9307C22.0835 12.8408 21.8581 12.7996 21.5276 12.7996V11.7994L21.5238 11.8068Z" fill="#131C50"/>
                        </svg>