<svg width="32" height="26" viewBox="0 0 32 26" fill="none" xmlns="http://www.w3.org/2000/svg">
                            <path d="M2.78929 25.9005C1.78248 25.9005 0.963501 25.0837 0.963501 24.0795V1.92048C0.963501 0.916319 1.78248 0.0995026 2.78929 0.0995026H29.2107C30.2175 0.0995026 31.0365 0.916319 31.0365 1.92048V24.0795C31.0365 25.0837 30.2175 25.9005 29.2107 25.9005H2.78929ZM2.78929 1.21982C2.40235 1.21982 2.09053 1.53081 2.09053 1.91674V24.0758C2.09053 24.4617 2.4061 24.7727 2.78929 24.7727H29.2107C29.5976 24.7727 29.9095 24.4617 29.9095 24.0758V1.91674C29.9095 1.53081 29.5939 1.21982 29.2107 1.21982H2.78929Z" fill="#131C50"/>
                            <path d="M9.85203 5.79475C10.4558 5.79475 10.9453 5.30659 10.9453 4.70441C10.9453 4.10223 10.4558 3.61407 9.85203 3.61407C9.24826 3.61407 8.75881 4.10223 8.75881 4.70441C8.75881 5.30659 9.24826 5.79475 9.85203 5.79475Z" fill="#131C50"/>
                            <path d="M6.08774 5.79475C6.69151 5.79475 7.18096 5.30659 7.18096 4.70441C7.18096 4.10223 6.69151 3.61407 6.08774 3.61407C5.48397 3.61407 4.99452 4.10223 4.99452 4.70441C4.99452 5.30659 5.48397 5.79475 6.08774 5.79475Z" fill="#131C50"/>
                            <path d="M13.312 5.79475C13.9158 5.79475 14.4052 5.30659 14.4052 4.70441C14.4052 4.10223 13.9158 3.61407 13.312 3.61407C12.7083 3.61407 12.2188 4.10223 12.2188 4.70441C12.2188 5.30659 12.7083 5.79475 13.312 5.79475Z" fill="#131C50"/>
                            <path d="M30.4692 7.91174H1.52326V9.0358H30.4692V7.91174Z" fill="#131C50"/>
                            <path d="M11.1256 15.4879L7.19599 16.908L11.1256 18.3168V19.8568L5.51671 17.6761V16.1474L11.1256 13.9405V15.4879Z" fill="#131C50"/>
                            <path d="M18.9735 11.7373L13.7365 21.8801H12.1624L17.3994 11.7373H18.9735Z" fill="#131C50"/>
                            <path d="M20.0141 13.9442L25.5967 16.1511V17.6799L20.0141 19.8605V18.3206L23.9324 16.9117L20.0141 15.4917V13.9442Z" fill="#131C50"/>
                            </svg>